<svg xmlns="http://www.w3.org/2000/svg" fill-rule="evenodd" stroke-linejoin="round" stroke-miterlimit="2" clip-rule="evenodd" viewBox="0 0 32 32"><path fill="none" d="M0 0h32v32H0z"/><path fill="#fff" d="M13.076 15.774c-.926-.646-1.643-1.582-1.928-2.716-.714-2.84 1.635-6.026 4.823-6.056h.064c2.495.023 4.829 2.12 4.96 4.636.084 1.609-.74 3.205-2.034 4.172 1.203.914 2.025 2.346 2.04 3.933v4.255s-.418 1.299-1.362.932a1.022 1.022 0 0 1-.63-.818c-.006-.051-.006-.063-.007-.114 0-1.421.013-2.842 0-4.262-.025-1.595-1.51-3.028-3.137-2.955-1.507.066-2.846 1.397-2.861 2.974l-.001 3.243h3c.233.007.31.038.441.103.601.295.743 1.273.146 1.706a1.01 1.01 0 0 1-.587.191h-3.999a.85.85 0 0 1-.33-.056c-.392-.137-.656-.446-.67-.944 0-1.418-.004-2.837 0-4.255.015-1.562.83-3.038 2.072-3.969Zm10.007.227.071-.007a2.051 2.051 0 0 0 1.708-1.261c.469-1.188-.447-2.728-1.864-2.732 0 0-.945-.224-.994-.931-.037-.527.398-1.029.952-1.068h.071c1.818.017 3.522 1.39 3.892 3.194.284 1.389-.289 2.856-1.346 3.798.849.733 1.416 1.803 1.427 2.979v4.025s-.155.978-1 1h-2.999c-.854-.023-1.417-1.4-.454-1.891a1 1 0 0 1 .298-.096c.051-.009.104-.011.156-.013H25c0-1.013.016-2.025 0-3.038-.023-1.03-.93-1.957-2.002-1.961 0 0-.195-.045-.412-.162-.254-.131-.532-.355-.577-.714a.816.816 0 0 1-.008-.126c.002-.506.424-.956.951-.996l.075-.001.056.001ZM6.411 17.01c-.694-.597-1.197-1.421-1.352-2.352-.373-2.251 1.48-4.633 3.92-4.656h.071c.503.035.94.466.954.972.016.579-.523.987-1.153 1.033-.75.062-1.435.57-1.708 1.261-.468 1.188.448 2.728 1.865 2.732h.001l.048.001c.09.007.176.029.256.062.15.049.326.138.458.294.183.22.234.505.18.776a.872.872 0 0 1-.402.705 1.008 1.008 0 0 1-.337.14c-.33.07-.688.048-1.008.188a2.042 2.042 0 0 0-1.199 1.835v2.997h1.999c.004.001.96.211.999.948.028.537-.436 1.037-.999 1.052H6.005c-.17-.005-.217-.02-.309-.049-.402-.131-.677-.451-.691-.951 0-1.35-.012-2.7.001-4.05.018-1.131.564-2.199 1.405-2.938Zm9.572-8.008c-1.94.018-3.645 2.23-2.681 4.144.791 1.57 3.113 2.115 4.562 1.008 1.242-.95 1.475-2.983.392-4.169a3.104 3.104 0 0 0-2.273-.983Z" class="color000000 svgShape"/></svg>